<svg width="28" height="27" viewBox="0 0 28 27" fill="none" xmlns="http://www.w3.org/2000/svg">
<path d="M14.0865 9.20709C11.6708 9.20709 9.69948 11.1785 9.69948 13.5942C9.69948 16.0099 11.6708 17.9813 14.0865 17.9813C16.5022 17.9813 18.4735 16.0099 18.4735 13.5942C18.4735 11.1785 16.5022 9.20709 14.0865 9.20709ZM27.2443 13.5942C27.2443 11.7775 27.2608 9.97722 27.1587 8.16379C27.0567 6.05745 26.5762 4.18808 25.036 2.64782C23.4925 1.10427 21.6264 0.627051 19.5201 0.525025C17.7034 0.423 15.9032 0.439455 14.0898 0.439455C12.2731 0.439455 10.4729 0.423 8.6595 0.525025C6.5532 0.627051 4.68386 1.10756 3.14363 2.64782C1.60011 4.19137 1.1229 6.05745 1.02087 8.16379C0.91885 9.98051 0.935305 11.7808 0.935305 13.5942C0.935305 15.4076 0.91885 17.2112 1.02087 19.0246C1.1229 21.1309 1.6034 23.0003 3.14363 24.5406C4.68715 26.0841 6.5532 26.5613 8.6595 26.6634C10.4762 26.7654 12.2764 26.7489 14.0898 26.7489C15.9065 26.7489 17.7067 26.7654 19.5201 26.6634C21.6264 26.5613 23.4957 26.0808 25.036 24.5406C26.5795 22.997 27.0567 21.1309 27.1587 19.0246C27.264 17.2112 27.2443 15.4109 27.2443 13.5942ZM14.0865 20.3444C10.3511 20.3444 7.33648 17.3297 7.33648 13.5942C7.33648 9.85874 10.3511 6.84404 14.0865 6.84404C17.8219 6.84404 20.8365 9.85874 20.8365 13.5942C20.8365 17.3297 17.8219 20.3444 14.0865 20.3444ZM21.113 8.14405C20.2409 8.14405 19.5366 7.43974 19.5366 6.56758C19.5366 5.69543 20.2409 4.99112 21.113 4.99112C21.9851 4.99112 22.6894 5.69543 22.6894 6.56758C22.6897 6.77468 22.6491 6.97979 22.57 7.17118C22.4908 7.36256 22.3747 7.53645 22.2283 7.68289C22.0818 7.82933 21.908 7.94544 21.7166 8.02457C21.5252 8.10371 21.3201 8.14431 21.113 8.14405Z" fill="black"/>
</svg>
