<svg xmlns="http://www.w3.org/2000/svg" viewBox="0 0 139.55 244.21"><g id="logo" data-name="logo"><g id="logotipo" data-name="logotipo"><path d="M30.22,152.86h1.92v21.33H30.22Z"/><path d="M34.77,174.28a1.38,1.38,0,0,1-1.41-.75,5.21,5.21,0,0,1-.33-2.06v-2.93a4.26,4.26,0,0,1,.41-2.06,1.51,1.51,0,0,1,1.45-.75H35a1.85,1.85,0,0,1,.76.19,4.69,4.69,0,0,1,.8.46v-4.52a1.65,1.65,0,0,0-.22-.94.6.6,0,0,0-.52-.31h-.15a.57.57,0,0,0-.5.31,1.75,1.75,0,0,0-.2.94v3.45H33V161.8a2.87,2.87,0,0,1,.71-2.07A2.38,2.38,0,0,1,35.5,159H36a2.35,2.35,0,0,1,1.77.74,3,3,0,0,1,.7,2.1v12.36H36.54v-.58a4.64,4.64,0,0,1-.86.48,2,2,0,0,1-.82.19Zm.88-7.11a.58.58,0,0,0-.5.3,1.82,1.82,0,0,0-.2.95v3.17a1.76,1.76,0,0,0,.2,1,.57.57,0,0,0,.5.29h.06a.71.71,0,0,0,.58-.29,1.49,1.49,0,0,0,.25-1v-3.72a.62.62,0,0,0-.23-.55.83.83,0,0,0-.44-.15Z"/><path d="M46.36,159.09H48l-1.59,15.1H44l-1.65-15.1h1.77l1.07,11h.06Z"/><path d="M50.87,174.28a2.33,2.33,0,0,1-1.77-.75,2.92,2.92,0,0,1-.7-2.06V161.8a3,3,0,0,1,.72-2.06,2.27,2.27,0,0,1,1.75-.75h.49a2.35,2.35,0,0,1,1.76.75,2.9,2.9,0,0,1,.71,2.06v9.67a2.88,2.88,0,0,1-.71,2.06,2.35,2.35,0,0,1-1.76.75Zm.19-13.67a.6.6,0,0,0-.52.31,1.57,1.57,0,0,0-.22.94v9.55a1.58,1.58,0,0,0,.22,1,.63.63,0,0,0,.52.29h.15a.59.59,0,0,0,.5-.29,1.76,1.76,0,0,0,.2-1v-9.55a1.75,1.75,0,0,0-.2-.94.57.57,0,0,0-.5-.31Z"/><path d="M59.63,174.19H54.29v-1.56l3.45-12H54.62v-1.55h5v1.52l-3.42,12h3.45Z"/><path d="M66.28,172.66h.21a.59.59,0,0,0,.5-.29,1.67,1.67,0,0,0,.2-1V167.9h1.93v3.54a2.89,2.89,0,0,1-.72,2.11,2.41,2.41,0,0,1-1.76.73h-.55a2.26,2.26,0,0,1-1.69-.75,2.9,2.9,0,0,1-.71-2.09v-9.61a2.91,2.91,0,0,1,.7-2.1,2.32,2.32,0,0,1,1.77-.74h.48a2.38,2.38,0,0,1,1.76.74,2.83,2.83,0,0,1,.72,2.07v5.28H65.61v4.33a1.66,1.66,0,0,0,.21,1A.6.6,0,0,0,66.28,172.66Zm.91-6.93v-3.87a1.66,1.66,0,0,0-.2-.94.57.57,0,0,0-.5-.31h-.15a.62.62,0,0,0-.52.31,1.65,1.65,0,0,0-.21.94v3.87Z"/><path d="M72.77,160.61a.74.74,0,0,0-.57.38,1.69,1.69,0,0,0-.28,1v12.18H70v-15.1h1.92v.79a3.32,3.32,0,0,1,.78-.64,1.64,1.64,0,0,1,.84-.25h.06a1.5,1.5,0,0,1,1.46.75,4.38,4.38,0,0,1,.4,2.06v12.39H73.54V161.86a1.76,1.76,0,0,0-.2-1,.59.59,0,0,0-.5-.29Z"/><path d="M82.29,174.28a2.33,2.33,0,0,1-1.77-.75,2.92,2.92,0,0,1-.7-2.06V161.8a3,3,0,0,1,.72-2.06,2.27,2.27,0,0,1,1.75-.75h.49a2.31,2.31,0,0,1,1.75.75,2.86,2.86,0,0,1,.72,2.06v9.67a2.84,2.84,0,0,1-.72,2.06,2.31,2.31,0,0,1-1.75.75Zm.19-13.67a.6.6,0,0,0-.52.31,1.57,1.57,0,0,0-.22.94v9.55a1.58,1.58,0,0,0,.22,1,.63.63,0,0,0,.52.29h.15a.59.59,0,0,0,.5-.29,1.76,1.76,0,0,0,.2-1v-9.55a1.75,1.75,0,0,0-.2-.94.57.57,0,0,0-.5-.31Z"/><path d="M86.32,174.19V160.7h-.76v-1.61h.76v-3.63a3.4,3.4,0,0,1,.23-1.23,2.33,2.33,0,0,1,.7-1,2.59,2.59,0,0,1,1.17-.54,4.27,4.27,0,0,1,1.68.08v1.53a3,3,0,0,0-.6,0,1.6,1.6,0,0,0-.61.18,1.21,1.21,0,0,0-.47.43,1.17,1.17,0,0,0-.18.67v3.48H90.1v1.61H88.24v13.49Z"/><path d="M90.74,174.19V160.7H90v-1.61h.76v-3.63a3.4,3.4,0,0,1,.23-1.23,2.42,2.42,0,0,1,.7-1,2.62,2.62,0,0,1,1.18-.54,4.23,4.23,0,0,1,1.67.08v1.53a3,3,0,0,0-.6,0,1.6,1.6,0,0,0-.61.18,1.21,1.21,0,0,0-.47.43,1.17,1.17,0,0,0-.18.67v3.48h1.86v1.61H92.66v13.49Z"/><path d="M100.44,174.28a1.56,1.56,0,0,1-1.49-.75,4.1,4.1,0,0,1-.43-2.06V161.8a4.37,4.37,0,0,1,.41-2.06,1.52,1.52,0,0,1,1.45-.75h.09a1.63,1.63,0,0,1,.8.23,3.58,3.58,0,0,1,.76.63v-7H104v21.33h-1.56l-.21-.86a3.16,3.16,0,0,1-.79.69,1.68,1.68,0,0,1-.86.26Zm.73-13.67a.6.6,0,0,0-.51.31,1.57,1.57,0,0,0-.22.94v9.55a1.76,1.76,0,0,0,.2,1,.59.59,0,0,0,.5.29h.06a.68.68,0,0,0,.54-.29,1.68,1.68,0,0,0,.29-.87v-9.7a1.82,1.82,0,0,0-.29-.87.64.64,0,0,0-.5-.32Z"/><path d="M107.49,172.66h.21a.61.61,0,0,0,.51-.29,1.77,1.77,0,0,0,.19-1V167.9h1.93v3.54a2.89,2.89,0,0,1-.72,2.11,2.39,2.39,0,0,1-1.75.73h-.55a2.29,2.29,0,0,1-1.7-.75,2.9,2.9,0,0,1-.71-2.09v-9.61a2.91,2.91,0,0,1,.7-2.1,2.35,2.35,0,0,1,1.77-.74h.49a2.36,2.36,0,0,1,1.75.74,2.83,2.83,0,0,1,.72,2.07v5.28h-3.51v4.33a1.66,1.66,0,0,0,.21,1A.6.6,0,0,0,107.49,172.66Zm.91-6.93v-3.87a1.76,1.76,0,0,0-.19-.94.59.59,0,0,0-.51-.31h-.15a.62.62,0,0,0-.52.31,1.65,1.65,0,0,0-.21.94v3.87Z"/><path d="M111.27,152.86h1.92v21.33h-1.92Z"/><path d="M121.06,165.31v-3.45a1.66,1.66,0,0,0-.2-.94.57.57,0,0,0-.5-.31h-.15a.6.6,0,0,0-.52.31,1.65,1.65,0,0,0-.21.94v9.55a1.66,1.66,0,0,0,.21,1,.59.59,0,0,0,.46.29h.21a.59.59,0,0,0,.5-.29,1.67,1.67,0,0,0,.2-1V167.9H123v3.54a2.93,2.93,0,0,1-.71,2.11,2.41,2.41,0,0,1-1.76.73H120a2.26,2.26,0,0,1-1.69-.75,2.9,2.9,0,0,1-.72-2.09v-9.61a2.92,2.92,0,0,1,.71-2.1A2.32,2.32,0,0,1,120,159h.48a2.38,2.38,0,0,1,1.76.74,2.87,2.87,0,0,1,.71,2.07v3.51Z"/><path d="M125.85,155.27v2.63h-1.92v-2.63Zm0,3.82v15.1h-1.92v-15.1Z"/><path d="M129.57,160.61a.77.77,0,0,0-.58.38,1.76,1.76,0,0,0-.27,1v12.18H126.8v-15.1h1.92v.79a3.32,3.32,0,0,1,.78-.64,1.63,1.63,0,0,1,.83-.25h.07a1.5,1.5,0,0,1,1.46.75,4.51,4.51,0,0,1,.4,2.06v12.39h-1.93V161.86a1.77,1.77,0,0,0-.19-1,.61.61,0,0,0-.51-.29Z"/><path d="M135.74,172.66H136a.59.59,0,0,0,.5-.29,1.76,1.76,0,0,0,.2-1V167.9h1.92v3.54a2.93,2.93,0,0,1-.71,2.11,2.41,2.41,0,0,1-1.76.73h-.55a2.26,2.26,0,0,1-1.69-.75,2.9,2.9,0,0,1-.72-2.09v-9.61a3,3,0,0,1,.7-2.1,2.35,2.35,0,0,1,1.77-.74h.49a2.38,2.38,0,0,1,1.76.74,2.87,2.87,0,0,1,.71,2.07v5.28h-3.51v4.33a1.58,1.58,0,0,0,.22,1A.59.59,0,0,0,135.74,172.66Zm.91-6.93v-3.87a1.75,1.75,0,0,0-.2-.94.57.57,0,0,0-.5-.31h-.15a.6.6,0,0,0-.52.31,1.57,1.57,0,0,0-.22.94v3.87Z"/><polygon points="10 244.21 0 244.21 0 0 139.55 0 139.55 10 10 10 10 244.21"/><path d="M30.19,145.94V49c-1.3.32-2.93.71-4.87,1.14a24.47,24.47,0,0,1-5.2.65V42.21a11.62,11.62,0,0,0,4-.73,13.23,13.23,0,0,0,6.57-5.27,9.83,9.83,0,0,0,1.46-3.74h9.1V145.94Z"/><path d="M62.65,146.92a16.26,16.26,0,0,1-5.36-.9,12.35,12.35,0,0,1-4.62-2.84,14.76,14.76,0,0,1-3.33-5A18.06,18.06,0,0,1,48,131V47.41a18.11,18.11,0,0,1,1.3-7.23,14.86,14.86,0,0,1,3.33-5,12.47,12.47,0,0,1,4.62-2.84,16.51,16.51,0,0,1,5.36-.89H64.6a16.71,16.71,0,0,1,5.27.89,12.35,12.35,0,0,1,4.71,2.84,15.16,15.16,0,0,1,3.33,5,18.28,18.28,0,0,1,1.3,7.23V68.67H68.82V48.87c0-2.92-.43-5-1.3-6.25a3.72,3.72,0,0,0-3.08-1.87h-1a3.75,3.75,0,0,0-3.08,1.79q-1.31,1.78-1.3,6.49V80a10.54,10.54,0,0,1,4.06-4.47A9.77,9.77,0,0,1,68,74.19h1.13q3.9,0,7.31,3.74T79.86,90.1V131a18.23,18.23,0,0,1-1.3,7.22,15.06,15.06,0,0,1-3.33,5A12.23,12.23,0,0,1,70.52,146a16.44,16.44,0,0,1-5.27.9Zm-3.57-17.54c0,3,.43,5.17,1.3,6.42a3.72,3.72,0,0,0,3.08,1.86h1a3.73,3.73,0,0,0,3.08-1.86c.87-1.25,1.3-3.38,1.3-6.42V91.72c0-3.13-.43-5.3-1.3-6.49a3.76,3.76,0,0,0-3.08-1.79h-1a3.64,3.64,0,0,0-3,1.63c-.81,1.08-1.27,2.87-1.38,5.35Z"/><path d="M98,115.1H87V100.16H98ZM98,139H87V124.06H98Z"/><path d="M122.55,31.5a16.81,16.81,0,0,1,5.28.89,12.39,12.39,0,0,1,4.7,2.84,15,15,0,0,1,3.33,5,18.11,18.11,0,0,1,1.3,7.23V131a18.06,18.06,0,0,1-1.3,7.22,14.9,14.9,0,0,1-3.33,5,12.27,12.27,0,0,1-4.7,2.84,16.55,16.55,0,0,1-5.28.9h-2a16.2,16.2,0,0,1-5.35-.9,12.31,12.31,0,0,1-4.63-2.84,14.9,14.9,0,0,1-3.33-5A18.06,18.06,0,0,1,106,131V100.16h10.39v29.39q0,4.38,1.3,6.25a3.86,3.86,0,0,0,3.25,1.86h.81a3.74,3.74,0,0,0,3.08-1.78q1.31-1.78,1.3-6.5V89a12,12,0,0,1-4.22,4.31,9.53,9.53,0,0,1-4.71,1.38h-1.13c-2.6,0-5-1.25-7.31-3.74s-3.41-6.54-3.41-12.17V47.41a18.11,18.11,0,0,1,1.3-7.23,15.16,15.16,0,0,1,3.33-5,12.43,12.43,0,0,1,4.63-2.84A16.45,16.45,0,0,1,120,31.5ZM126.12,49q0-4.55-1.3-6.41a3.71,3.71,0,0,0-3.08-1.87h-1a3.72,3.72,0,0,0-3.08,1.87q-1.31,1.86-1.3,6.41V77.11q0,4.71,1.3,6.5a3.75,3.75,0,0,0,3.08,1.78h1a3.72,3.72,0,0,0,3.08-1.86q1.31-1.87,1.3-6.25Z"/></g></g></svg>