<svg xmlns="http://www.w3.org/2000/svg" viewBox="0 0 139.55 244.21"><g id="logo" data-name="logo"><g id="logotipo" data-name="logotipo"><polygon points="10 244.21 0 244.21 0 0 139.55 0 139.55 10 10 10 10 244.21"/><path d="M30.19,145.94V49c-1.3.32-2.93.71-4.87,1.14a24.47,24.47,0,0,1-5.2.65V42.21a11.62,11.62,0,0,0,4-.73,13.23,13.23,0,0,0,6.57-5.27,9.83,9.83,0,0,0,1.46-3.74h9.1V145.94Z"/><path d="M62.65,146.92a16.26,16.26,0,0,1-5.36-.9,12.35,12.35,0,0,1-4.62-2.84,14.76,14.76,0,0,1-3.33-5A18.06,18.06,0,0,1,48,131V47.41a18.11,18.11,0,0,1,1.3-7.23,14.86,14.86,0,0,1,3.33-5,12.47,12.47,0,0,1,4.62-2.84,16.51,16.51,0,0,1,5.36-.89H64.6a16.71,16.71,0,0,1,5.27.89,12.35,12.35,0,0,1,4.71,2.84,15.16,15.16,0,0,1,3.33,5,18.28,18.28,0,0,1,1.3,7.23V68.67H68.82V48.87c0-2.92-.43-5-1.3-6.25a3.72,3.72,0,0,0-3.08-1.87h-1a3.75,3.75,0,0,0-3.08,1.79q-1.31,1.78-1.3,6.49V80a10.54,10.54,0,0,1,4.06-4.47A9.77,9.77,0,0,1,68,74.19h1.13q3.9,0,7.31,3.74T79.86,90.1V131a18.23,18.23,0,0,1-1.3,7.22,15.06,15.06,0,0,1-3.33,5A12.23,12.23,0,0,1,70.52,146a16.44,16.44,0,0,1-5.27.9Zm-3.57-17.54c0,3,.43,5.17,1.3,6.42a3.72,3.72,0,0,0,3.08,1.86h1a3.73,3.73,0,0,0,3.08-1.86c.87-1.25,1.3-3.38,1.3-6.42V91.72c0-3.13-.43-5.3-1.3-6.49a3.76,3.76,0,0,0-3.08-1.79h-1a3.64,3.64,0,0,0-3,1.63c-.81,1.08-1.27,2.87-1.38,5.35Z"/><path d="M98,115.1H87V100.16H98ZM98,139H87V124.06H98Z"/><path d="M122.55,31.5a16.81,16.81,0,0,1,5.28.89,12.39,12.39,0,0,1,4.7,2.84,15,15,0,0,1,3.33,5,18.11,18.11,0,0,1,1.3,7.23V131a18.06,18.06,0,0,1-1.3,7.22,14.9,14.9,0,0,1-3.33,5,12.27,12.27,0,0,1-4.7,2.84,16.55,16.55,0,0,1-5.28.9h-2a16.2,16.2,0,0,1-5.35-.9,12.31,12.31,0,0,1-4.63-2.84,14.9,14.9,0,0,1-3.33-5A18.06,18.06,0,0,1,106,131V100.16h10.39v29.39q0,4.38,1.3,6.25a3.86,3.86,0,0,0,3.25,1.86h.81a3.74,3.74,0,0,0,3.08-1.78q1.31-1.78,1.3-6.5V89a12,12,0,0,1-4.22,4.31,9.53,9.53,0,0,1-4.71,1.38h-1.13c-2.6,0-5-1.25-7.31-3.74s-3.41-6.54-3.41-12.17V47.41a18.11,18.11,0,0,1,1.3-7.23,15.16,15.16,0,0,1,3.33-5,12.43,12.43,0,0,1,4.63-2.84A16.45,16.45,0,0,1,120,31.5ZM126.12,49q0-4.55-1.3-6.41a3.71,3.71,0,0,0-3.08-1.87h-1a3.72,3.72,0,0,0-3.08,1.87q-1.31,1.86-1.3,6.41V77.11q0,4.71,1.3,6.5a3.75,3.75,0,0,0,3.08,1.78h1a3.72,3.72,0,0,0,3.08-1.86q1.31-1.87,1.3-6.25Z"/></g></g></svg>