<svg width="35" height="27" viewBox="0 0 35 27" fill="none" xmlns="http://www.w3.org/2000/svg">
<path d="M34.5237 3.17304C33.2541 3.70924 31.8903 4.07154 30.4565 4.2353C31.9359 3.39156 33.0427 2.06363 33.5704 0.499274C32.1804 1.28617 30.6592 1.84006 29.0728 2.13686C28.006 1.05122 26.593 0.33164 25.0532 0.089839C23.5134 -0.151962 21.9329 0.0975451 20.5571 0.799623C19.1813 1.5017 18.0871 2.61707 17.4445 3.97256C16.802 5.32805 16.6469 6.84783 17.0034 8.29594C14.187 8.16116 11.4318 7.46345 8.91666 6.24809C6.4015 5.03273 4.18256 3.32689 2.40386 1.24126C1.79567 2.24121 1.44596 3.40056 1.44596 4.63527C1.44528 5.7468 1.73247 6.8413 2.28203 7.82166C2.8316 8.80203 3.62656 9.63795 4.59637 10.2552C3.47164 10.2211 2.37173 9.93147 1.38819 9.41037V9.49732C1.38807 11.0563 1.95385 12.5673 2.98951 13.7739C4.02518 14.9805 5.46694 15.8085 7.07017 16.1172C6.0268 16.3864 4.9329 16.426 3.87111 16.2332C4.32344 17.5746 5.20455 18.7476 6.39108 19.5879C7.5776 20.4283 9.01015 20.894 10.4882 20.9199C7.97915 22.7972 4.88052 23.8155 1.69076 23.811C1.12572 23.8112 0.561168 23.7797 0 23.7168C3.2378 25.701 7.00682 26.7541 10.8561 26.75C23.8865 26.75 31.0099 16.4636 31.0099 7.54236C31.0099 7.25252 31.0023 6.95978 30.9886 6.66994C32.3742 5.71489 33.5702 4.53223 34.5207 3.17738L34.5237 3.17304Z" fill="black"/>
</svg>
